<?xml version="1.0" standalone="no"?>
<!DOCTYPE svg PUBLIC "-//W3C//DTD SVG 20010904//EN"
 "http://www.w3.org/TR/2001/REC-SVG-20010904/DTD/svg10.dtd">
<svg version="1.0" xmlns="http://www.w3.org/2000/svg"
 width="777.000000pt" height="1280.000000pt" viewBox="0 0 777.000000 1280.000000"
 preserveAspectRatio="xMidYMid meet">
<metadata>
Created by potrace 1.15, written by Peter Selinger 2001-2017
</metadata>
<g transform="translate(0.000000,1280.000000) scale(0.100000,-0.100000)"
fill="#1dd3b0" stroke="none">
<path d="M3702 12789 c-948 -51 -1815 -451 -2497 -1150 -315 -323 -540 -640
-745 -1049 -396 -791 -547 -1757 -394 -2530 162 -817 645 -1793 1383 -2790
320 -433 652 -825 1011 -1195 102 -104 197 -204 211 -222 16 -19 38 -33 55
-35 34 -4 28 12 124 -363 134 -529 254 -1108 325 -1570 14 -93 28 -182 31
-198 l6 -27 -157 0 c-186 0 -219 -11 -256 -87 -52 -107 26 -223 151 -223 l40
0 0 -436 c0 -480 2 -499 62 -618 42 -84 154 -192 238 -233 119 -56 136 -58
605 -58 389 0 436 2 489 18 184 57 307 170 375 345 l26 67 3 456 3 457 53 4
c67 6 112 37 138 95 24 55 17 111 -19 154 -46 54 -66 59 -253 59 l-170 0 0 35
c0 53 65 557 106 817 60 385 165 915 242 1213 l18 70 46 3 c43 3 46 5 64 45
12 28 83 108 219 247 1315 1338 2264 2876 2474 4010 43 232 52 332 52 572 -1
1006 -347 1970 -985 2738 -98 118 -331 355 -451 459 -569 492 -1263 806 -1980
895 -107 14 -459 38 -489 35 -6 -1 -75 -5 -154 -10z m-345 -8983 c3 -2 243
-2112 243 -2132 0 -11 -34 -14 -189 -14 l-189 0 -17 113 c-56 373 -157 903
-245 1282 -40 175 -157 639 -185 740 -6 20 -2 20 287 17 161 -2 294 -5 295 -6z
m857 -7 c3 -3 -99 -2124 -103 -2137 -1 -1 -112 -1 -248 0 l-248 3 -116 1025
c-64 564 -119 1047 -123 1074 l-5 49 419 -5 c231 -2 422 -6 424 -9z m676 -6
c0 -3 -20 -90 -45 -192 -120 -503 -229 -1130 -295 -1696 -11 -99 -23 -195 -26
-212 l-5 -33 -194 0 -195 0 0 48 c0 26 23 501 50 1057 28 555 50 1015 50 1022
0 10 71 13 330 13 182 0 330 -3 330 -7z"/>
</g>
</svg>
